<svg width="512" height="512" viewBox="0 0 512 512" xmlns="http://www.w3.org/2000/svg">
      <rect width="512" height="512" fill="#8B5CF6"/>
      <g transform="translate(51.2, 51.2)">
        
  <!-- Background gradient -->
  <defs>
    <radialGradient id="bgGradient" cx="50%" cy="30%" r="70%">
      <stop offset="0%" style="stop-color:#E879F9;stop-opacity:1" />
      <stop offset="100%" style="stop-color:#8B5CF6;stop-opacity:1" />
    </radialGradient>
    <linearGradient id="balloonGradient" x1="0%" y1="0%" x2="100%" y2="100%">
      <stop offset="0%" style="stop-color:#FEF3C7;stop-opacity:1" />
      <stop offset="50%" style="stop-color:#FDE047;stop-opacity:1" />
      <stop offset="100%" style="stop-color:#EAB308;stop-opacity:1" />
    </linearGradient>
  </defs>
  
  <!-- Background circle -->
  <circle cx="256" cy="256" r="240" fill="url(#bgGradient)" stroke="#6B46C1" stroke-width="8"/>
  
  <!-- Central balloon (bigger) -->
  <ellipse cx="256" cy="256" rx="40" ry="50" fill="url(#balloonGradient)" stroke="#92400E" stroke-width="3"/>
  <ellipse cx="245" cy="240" rx="12" ry="15" fill="#FBBF24" opacity="0.6"/>
  <line x1="256" y1="306" x2="256" y2="330" stroke="#92400E" stroke-width="3" stroke-linecap="round"/>
  
  <!-- Huge Danish letters A-Å -->
  <text x="120" y="180" font-family="Comic Sans MS, cursive" font-size="100" font-weight="bold" fill="#FFFFFF" text-anchor="middle" stroke="#6B46C1" stroke-width="3">A</text>
  <text x="392" y="180" font-family="Comic Sans MS, cursive" font-size="100" font-weight="bold" fill="#FFFFFF" text-anchor="middle" stroke="#6B46C1" stroke-width="3">Å</text>
  
  <!-- Large Numbers -->
  <text x="120" y="380" font-family="Comic Sans MS, cursive" font-size="85" font-weight="bold" fill="#FFFFFF" text-anchor="middle" stroke="#6B46C1" stroke-width="3">1</text>
  <text x="392" y="380" font-family="Comic Sans MS, cursive" font-size="75" font-weight="bold" fill="#FFFFFF" text-anchor="middle" stroke="#6B46C1" stroke-width="3">10</text>
  
  <!-- Colorful shapes for future game categories -->
  <!-- Green triangle (top-left) -->
  <path d="M 60 60 L 80 100 L 40 100 Z" fill="#10B981" stroke="#059669" stroke-width="2"/>
  
  <!-- Blue square (top-right) -->
  <rect x="432" y="60" width="40" height="40" fill="#3B82F6" stroke="#1D4ED8" stroke-width="2" rx="4"/>
  
  <!-- Red circle (bottom-left) -->
  <circle cx="60" cy="440" r="20" fill="#EF4444" stroke="#DC2626" stroke-width="2"/>
  
  <!-- Orange star (bottom-right) -->
  <path d="M 452 420 L 456 432 L 468 432 L 458 440 L 462 452 L 452 444 L 442 452 L 446 440 L 436 432 L 448 432 Z" 
        fill="#F97316" stroke="#EA580C" stroke-width="2"/>
  
  <!-- Yellow hexagon (center-bottom) -->
  <path d="M 236 440 L 256 430 L 276 440 L 276 460 L 256 470 L 236 460 Z" 
        fill="#FDE047" stroke="#EAB308" stroke-width="2"/>

      </g>
    </svg>